<?xml version="1.0" encoding="utf-8"?>
<!-- Generator: Adobe Illustrator 16.0.0, SVG Export Plug-In . SVG Version: 6.00 Build 0)  -->
<!DOCTYPE svg PUBLIC "-//W3C//DTD SVG 1.0//EN" "http://www.w3.org/TR/2001/REC-SVG-20010904/DTD/svg10.dtd">
<svg version="1.0" id="Layer_1" xmlns="http://www.w3.org/2000/svg" xmlns:xlink="http://www.w3.org/1999/xlink" x="0px" y="0px"
	 width="64px" height="64px" viewBox="0 0 64 64" enable-background="new 0 0 64 64" xml:space="preserve">
<polygon points="32,6.25 37.908,23.774 56.249,23.774 41.576,34.779 46.876,52.303 32,41.91 17.125,52.303 22.422,34.779 
	7.751,23.774 26.091,23.774 "/>
<path d="M32,62.375C15.251,62.375,1.625,48.749,1.625,32S15.251,1.625,32,1.625S62.375,15.251,62.375,32S48.749,62.375,32,62.375z
	 M32,6.625C18.008,6.625,6.625,18.008,6.625,32c0,13.992,11.383,25.375,25.375,25.375c13.992,0,25.375-11.383,25.375-25.375
	C57.375,18.008,45.992,6.625,32,6.625z"/>
</svg>
